<svg width="40" height="40" viewBox="0 0 40 40" fill="none" xmlns="http://www.w3.org/2000/svg">
<g clip-path="url(#clip0_34012_111033)">
<path d="M36.9167 19.9583C36.9167 20.7204 36.8664 21.4708 36.769 22.2063C35.608 21.0327 34.1826 19.9583 32.2267 19.9583C29.6742 19.9583 27.9392 21.7874 26.5517 23.2895C26.4862 23.3604 26.4215 23.4307 26.3574 23.5003L26.3567 23.5009C25.705 24.2083 25.1198 24.8433 24.5056 25.3264C23.8443 25.8464 23.2276 26.125 22.568 26.125H22.2708C21.5096 26.125 20.8467 25.8325 20.1827 25.3214C19.5265 24.8164 18.9218 24.1412 18.2481 23.3889L18.1657 23.297C16.8263 21.802 15.1744 19.9583 12.6122 19.9583C10.0598 19.9583 8.32475 21.7874 6.93729 23.2895C6.8734 23.3586 6.81021 23.4272 6.74764 23.4951L6.74209 23.5011C6.0903 24.2085 5.50539 24.8433 4.89112 25.3264C4.60661 25.5501 4.33034 25.7292 4.05535 25.8606C3.3729 24.0225 3 22.034 3 19.9583C3 18.3902 3.21284 16.8718 3.61121 15.4304C4.92462 14.5332 6.21127 13.7917 7.9872 13.7917C9.80102 13.7917 11.0224 14.8965 12.4291 16.2702C12.4841 16.324 12.5396 16.3783 12.5954 16.433C13.882 17.6937 15.4066 19.1875 17.6458 19.1875H17.943C19.0482 19.1875 19.9808 18.7682 20.7941 18.2086C21.5132 17.7137 22.1863 17.0737 22.8194 16.4718C22.8877 16.4068 22.9556 16.3423 23.0231 16.2784C24.4679 14.9097 25.778 13.7917 27.6017 13.7917C29.5013 13.7917 30.7549 14.6388 32.1333 15.626L32.2778 15.7296C33.4939 16.6025 34.8618 17.5843 36.7716 17.7301C36.8673 18.4593 36.9167 19.203 36.9167 19.9583Z" fill="url(#paint0_linear_34012_111033)"/>
<path d="M36.4863 16.1454C34.7563 8.61566 28.0131 3 19.9583 3C13.0216 3 7.05765 7.16486 4.43065 13.1304C5.43204 12.6236 6.5872 12.25 7.9872 12.25C10.5083 12.25 12.1503 13.8431 13.5062 15.1673C14.9471 16.5743 16.0505 17.6458 17.6458 17.6458H17.943C18.6328 17.6458 19.2631 17.3907 19.9201 16.9386C20.533 16.5168 21.1159 15.9633 21.7676 15.3444L21.9629 15.1591C23.3661 13.8299 25.0904 12.25 27.6017 12.25C30.037 12.25 31.6467 13.3813 33.0309 14.3726L33.0668 14.3983C34.2337 15.234 35.2174 15.9386 36.4863 16.1454Z" fill="url(#paint1_linear_34012_111033)"/>
<path d="M32.2267 21.5C33.9063 21.5 35.0822 22.6129 36.412 24.0813C34.5703 31.4547 27.9022 36.9167 19.9583 36.9167C13.2149 36.9167 7.39073 32.9806 4.65794 27.2807C5.0846 27.084 5.4784 26.8258 5.84415 26.5382C6.56187 25.9737 7.23293 25.2446 7.86589 24.5568L7.86669 24.5559C7.93481 24.4819 8.0025 24.4083 8.06975 24.3355C9.5304 22.7542 10.8297 21.5 12.6122 21.5C14.3843 21.5 15.5956 22.7387 17.0186 24.3269L17.134 24.4559C17.7763 25.1737 18.4692 25.948 19.2424 26.5431C20.0807 27.1883 21.0662 27.6667 22.2708 27.6667H22.568C23.7034 27.6667 24.6496 27.1744 25.4586 26.5382C26.1763 25.9737 26.8474 25.2445 27.4804 24.5567L27.4819 24.5551C27.5498 24.4813 27.6172 24.4081 27.6842 24.3355C29.1449 22.7542 30.4442 21.5 32.2267 21.5Z" fill="url(#paint2_linear_34012_111033)"/>
</g>
<defs>
<linearGradient id="paint0_linear_34012_111033" x1="28.599" y1="3" x2="11.3176" y2="36.9167" gradientUnits="userSpaceOnUse">
<stop stop-color="#FDDB8D"/>
<stop offset="1" stop-color="#FB360B"/>
</linearGradient>
<linearGradient id="paint1_linear_34012_111033" x1="28.599" y1="3" x2="11.3176" y2="36.9167" gradientUnits="userSpaceOnUse">
<stop stop-color="#FDDB8D"/>
<stop offset="1" stop-color="#FB360B"/>
</linearGradient>
<linearGradient id="paint2_linear_34012_111033" x1="28.599" y1="3" x2="11.3176" y2="36.9167" gradientUnits="userSpaceOnUse">
<stop stop-color="#FDDB8D"/>
<stop offset="1" stop-color="#FB360B"/>
</linearGradient>
<clipPath id="clip0_34012_111033">
<rect width="40" height="40" fill="white"/>
</clipPath>
</defs>
</svg>
